<svg width="70" height="70" viewBox="0 0 70 70" fill="none" xmlns="http://www.w3.org/2000/svg"><path d="M39.6902 11.0108C37.7005 7.23954 32.2995 7.23954 30.3097 11.0108L25.5191 20.0908C24.7518 21.5451 23.3532 22.5612 21.733 22.8416L11.617 24.5919C7.41545 25.3188 5.74644 30.4555 8.71823 33.5133L15.8734 40.8753C17.0195 42.0545 17.5537 43.6986 17.3196 45.3262L15.8582 55.4879C15.2513 59.7085 19.6208 62.8831 23.4472 61.0017L32.66 56.4717C34.1356 55.7461 35.8643 55.7461 37.34 56.4717L46.5528 61.0017C50.3792 62.8831 54.7487 59.7085 54.1418 55.4879L52.6804 45.3262C52.4463 43.6986 52.9805 42.0545 54.1266 40.8753L61.2818 33.5133C64.2536 30.4555 62.5845 25.3188 58.383 24.5919L48.267 22.8416C46.6468 22.5612 45.2482 21.5451 44.4809 20.0908L39.6902 11.0108Z" fill="#E3A400"/><path d="M54.1919 51.0957V56.2724L48.7324 51.0957H54.1919ZM15.8164 51.1753V56.2235L20.0204 51.8788 15.8164 51.1753ZM62.7914 24.6343V29.9808L57.0703 25.0503 62.7914 24.6343ZM7.21094 24.1846V29.8216L13.4497 26.4649 7.21094 24.1846Z" fill="#E3A400"/><path d="M39.6902 5.70804C37.7005 1.93681 32.2995 1.93681 30.3097 5.70804L25.5191 14.788C24.7518 16.2424 23.3532 17.2585 21.733 17.5388L11.617 19.2891C7.41545 20.0161 5.74644 25.1528 8.71823 28.2105L15.8734 35.5726C17.0195 36.7518 17.5537 38.3959 17.3196 40.0234L15.8582 50.1852C15.2513 54.4057 19.6208 57.5804 23.4472 55.6989L32.66 51.1689C34.1356 50.4434 35.8643 50.4434 37.34 51.1689L46.5528 55.6989C50.3792 57.5804 54.7487 54.4057 54.1418 50.1852L52.6804 40.0234C52.4463 38.3959 52.9805 36.7518 54.1266 35.5726L61.2818 28.2105C64.2536 25.1528 62.5845 20.0161 58.383 19.2891L48.267 17.5388C46.6468 17.2585 45.2482 16.2424 44.4809 14.788L39.6902 5.70804Z" fill="#FFD600"/></svg>