<svg width="142" height="150" viewBox="0 0 142 150" fill="none" xmlns="http://www.w3.org/2000/svg">
<path d="M43.992 27.9802C49.6263 27.9102 55.0699 25.9289 59.431 22.3609C66.382 16.6741 76.3778 16.6741 83.3287 22.3609C87.6899 25.9289 93.1335 27.9102 98.7678 27.9802C107.748 28.0919 115.405 34.517 117.074 43.3414C118.122 48.878 121.018 53.8948 125.289 57.5701C132.097 63.4279 133.833 73.2719 129.439 81.1047C126.683 86.0192 125.677 91.7241 126.586 97.285C128.036 106.148 123.038 114.805 114.637 117.981C109.367 119.974 104.929 123.698 102.051 128.542C97.4646 136.263 88.0716 139.682 79.5948 136.715C74.2763 134.854 68.4834 134.854 63.1649 136.715C54.6882 139.682 45.2952 136.263 40.7084 128.542C37.8306 123.698 33.393 119.974 28.1224 117.981C19.722 114.805 14.7241 106.148 16.1736 97.285C17.083 91.7241 16.0771 86.0192 13.3205 81.1047C8.92712 73.2719 10.6629 63.4279 17.4703 57.5701C21.7415 53.8948 24.6379 48.878 25.6853 43.3414C27.3546 34.517 35.0118 28.0919 43.992 27.9802Z" fill="white" stroke="#FFD600" stroke-width="6"/>
<path opacity="0.71" d="M17.8114 24.1406L16.0825 27.4206L12.8799 29.1913L16.0825 30.9842L17.8114 34.2642L19.5829 30.9842L22.7422 29.1913L19.5829 27.4206L17.8114 24.1406Z" fill="white"/>
<path opacity="0.8" d="M43.1665 0.708984L40.5623 5.62863L35.7588 8.27359L40.5623 10.9851L43.1665 15.904L45.8134 10.9851L50.5533 8.27359L45.8134 5.62863L43.1665 0.708984Z" fill="white"/>
<path opacity="0.71" d="M104.381 12.0898L103.237 14.2503L101.128 15.4115L103.237 16.6023L104.381 18.7627L105.544 16.6023L107.625 15.4115L105.544 14.2503L104.381 12.0898Z" fill="white"/>
<path opacity="0.71" d="M73.34 0.791016L72.1964 2.95146L70.0869 4.11266L72.1964 5.30343L73.34 7.46387L74.5027 5.30343L76.584 4.11266L74.5027 2.95146L73.34 0.791016Z" fill="white"/>
<path opacity="0.8" d="M127.493 33.5137L124.889 38.4326L120.085 41.0783L124.889 43.7897L127.493 48.7087L130.14 43.7897L134.879 41.0783L130.14 38.4326L127.493 33.5137Z" fill="white"/>
<path d="M122.403 8.74219L120.674 12.0215L117.472 13.7922L120.674 15.5851L122.403 18.865L124.175 15.5851L127.334 13.7922L124.175 12.0215L122.403 8.74219Z" fill="white"/>
</svg>
