<svg width="60" height="60" viewBox="0 0 60 60" fill="none" xmlns="http://www.w3.org/2000/svg"><path d="M43.0636 25.1965H27.1386L31.2286 21.1075C32.1048 20.2308 32.5971 19.042 32.5971 17.8025C32.5971 16.5629 32.1048 15.3741 31.2286 14.4975V14.4975C30.3519 13.6212 29.1631 13.1289 27.9236 13.1289C26.684 13.1289 25.4952 13.6212 24.6186 14.4975L12.3686 26.7465C11.4923 27.6231 11 28.8119 11 30.0515C11 31.291 11.4923 32.4798 12.3686 33.3565V33.3565L24.6286 45.6195C25.0627 46.0537 25.5781 46.3983 26.1454 46.6333C26.7127 46.8684 27.3208 46.9895 27.9348 46.9896C28.5489 46.9896 29.157 46.8688 29.7244 46.6339C30.2917 46.399 30.8073 46.0546 31.2416 45.6205C31.6758 45.1863 32.0204 44.6709 32.2554 44.1036C32.4905 43.5363 32.6116 42.9282 32.6116 42.3142C32.6117 41.7001 32.4909 41.092 32.256 40.5246C32.0211 39.9573 31.6767 39.4417 31.2426 39.0075L27.4286 35.1965H43.0636C44.3896 35.1965 45.6614 34.6697 46.5991 33.732C47.5368 32.7943 48.0636 31.5225 48.0636 30.1965C48.0636 28.8704 47.5368 27.5986 46.5991 26.6609C45.6614 25.7232 44.3896 25.1965 43.0636 25.1965Z" fill="white"/></svg>