<svg width="60" height="60" viewBox="0 0 60 60" fill="none" xmlns="http://www.w3.org/2000/svg"><path d="M29.744 33.524C29.2587 33.524 28.8667 33.3653 28.568 33.048C28.288 32.7307 28.1107 32.292 28.036 31.732L27.056 23.276C26.9253 22.3053 27.1027 21.5213 27.588 20.924C28.0733 20.308 28.792 20 29.744 20C30.7147 20 31.4333 20.308 31.9 20.924C32.3667 21.5213 32.5347 22.3053 32.404 23.276L31.452 31.732C31.3773 32.292 31.2 32.7307 30.92 33.048C30.64 33.3653 30.248 33.524 29.744 33.524ZM29.744 40.16C28.904 40.16 28.232 39.908 27.728 39.404C27.2427 38.9 27 38.2373 27 37.416C27 36.6133 27.2427 35.9693 27.728 35.484C28.232 34.98 28.904 34.728 29.744 34.728C30.6213 34.728 31.2933 34.98 31.76 35.484C32.2453 35.9693 32.488 36.6133 32.488 37.416C32.488 38.2373 32.2453 38.9 31.76 39.404C31.2933 39.908 30.6213 40.16 29.744 40.16Z" fill="white"/><path fill-rule="evenodd" clip-rule="evenodd" d="M29.9992 45C33.3122 45.0002 36.532 43.9036 39.1562 41.8813C41.7803 39.8591 43.6612 37.0249 44.5051 33.8212C45.3491 30.6176 45.1087 27.2246 43.8215 24.1719C42.5343 21.1193 40.2727 18.5786 37.3896 16.9465C34.5065 15.3144 31.1642 14.6827 27.8844 15.15C24.6045 15.6173 21.5716 17.1572 19.2591 19.5295C16.9465 21.9018 15.4844 24.973 15.1009 28.2637C14.7174 31.5544 15.4341 34.8795 17.1392 37.72C17.1594 38.2723 16.9911 38.8375 16.8086 39.3242C16.7266 39.543 16.5508 39.9609 16.3992 40.29C16.1482 40.8347 15.9361 41.451 15.961 41.9842C15.9859 42.5174 16.2857 43.1133 16.8103 43.4254C17.8457 44.0414 19.0758 43.8891 20.2812 43.3711C20.5317 43.2552 20.8381 43.1581 21.1022 43.0823C21.3205 43.0197 21.5426 42.9709 21.7672 42.9364C21.7733 42.9354 21.7795 42.9345 21.7857 42.9336C21.9655 42.9066 22.1469 42.8887 22.3292 42.88C24.6466 44.2685 27.2977 45.0013 29.9992 45ZM29.9988 51C27.1186 51.0009 24.2794 50.4069 21.6556 49.2662C21.1326 49.4564 19.8809 49.8848 18.4671 49.9572C16.5492 50.0553 13.4403 49.4346 11.6465 47.2222C10.5824 45.9099 10.016 43.8922 9.9364 42.1871C9.87538 40.8796 10.3147 39.3242 10.7044 38.2873C9.26151 34.9279 8.71419 31.2333 9.14119 27.5692C9.67808 22.9622 11.7251 18.6626 14.9627 15.3413C18.2003 12.0201 22.4463 9.86415 27.0381 9.20996C31.6299 8.55577 36.3091 9.44016 40.3454 11.7251C44.3817 14.01 47.548 17.5669 49.3501 21.8407C51.1522 26.1145 51.4887 30.8646 50.3072 35.3497C49.1256 39.8349 46.4924 43.8027 42.8186 46.6339C39.1456 49.4644 34.639 50.9996 30.0019 51" fill="white"/></svg>