<svg width="60" height="60" viewBox="0 0 60 60" fill="none" xmlns="http://www.w3.org/2000/svg"><path d="M17.9196 45.7362 23.6196 40.0362V42.9602C23.6189 43.2711 23.6796 43.5791 23.7981 43.8665 23.9166 44.154 24.0906 44.4152 24.3102 44.6354 24.5297 44.8555 24.7906 45.0302 25.0777 45.1494 25.3649 45.2686 25.6727 45.33 25.9836 45.3302 26.6111 45.3302 27.2129 45.0809 27.6566 44.6372 28.1003 44.1935 28.3496 43.5917 28.3496 42.9642V34.2002C28.3503 33.8891 28.2895 33.5809 28.1709 33.2934 28.0523 33.0058 27.8781 32.7444 27.6583 32.5243 27.4385 32.3041 27.1775 32.1295 26.8901 32.0104 26.6027 31.8913 26.2947 31.83 25.9836 31.8302H17.2066C16.8919 31.8237 16.579 31.8801 16.2863 31.9961 15.9937 32.1121 15.7271 32.2853 15.5022 32.5056 15.2774 32.7259 15.0987 32.9888 14.9767 33.279 14.8548 33.5692 14.792 33.8809 14.792 34.1957 14.792 34.5105 14.8548 34.8221 14.9767 35.1123 15.0987 35.4025 15.2774 35.6655 15.5022 35.8858 15.7271 36.1061 15.9937 36.2793 16.2863 36.3953 16.579 36.5112 16.8919 36.5677 17.2066 36.5612H19.9356L14.3406 42.1612C14.1 42.3949 13.9083 42.6742 13.7765 42.9827 13.6448 43.2912 13.5757 43.6228 13.5733 43.9583 13.5709 44.2937 13.6351 44.6263 13.7624 44.9367 13.8896 45.2471 14.0773 45.5291 14.3145 45.7663 14.5517 46.0035 14.8337 46.1911 15.1441 46.3184 15.4545 46.4456 15.7871 46.5099 16.1225 46.5075 16.458 46.5051 16.7896 46.436 17.0981 46.3043 17.4066 46.1725 17.6859 45.9808 17.9196 45.7402V45.7362ZM42.1702 45.7357 36.4702 40.0357V42.9597C36.4707 43.2707 36.41 43.5787 36.2914 43.8661 36.1728 44.1536 35.9987 44.4148 35.779 44.6349 35.5594 44.8551 35.2985 45.0297 35.0113 45.1489 34.7241 45.2681 34.4162 45.3296 34.1052 45.3297V45.3297C33.7946 45.3297 33.4869 45.2685 33.1999 45.1496 32.9129 45.0307 32.6522 44.8564 32.4326 44.6366 32.2129 44.4169 32.0387 44.1561 31.92 43.869 31.8012 43.582 31.7401 43.2744 31.7402 42.9637V34.1997C31.7396 33.8887 31.8002 33.5806 31.9188 33.2931 32.0374 33.0056 32.2115 32.7443 32.4311 32.5241 32.6508 32.304 32.9118 32.1294 33.199 32.0102 33.4863 31.891 33.7942 31.8297 34.1052 31.8297H42.8832C43.5022 31.8424 44.0915 32.0972 44.5247 32.5395 44.9579 32.9817 45.2006 33.5761 45.2006 34.1952 45.2006 34.8143 44.9579 35.4087 44.5247 35.8509 44.0915 36.2932 43.5022 36.548 42.8832 36.5607H40.1542L45.7492 42.1607C45.9898 42.3944 46.1816 42.6737 46.3133 42.9822 46.445 43.2907 46.5141 43.6223 46.5165 43.9578 46.519 44.2932 46.4547 44.6258 46.3274 44.9362 46.2002 45.2466 46.0125 45.5286 45.7753 45.7658 45.5381 46.003 45.2561 46.1907 44.9457 46.3179 44.6353 46.4452 44.3027 46.5094 43.9673 46.507 43.6318 46.5046 43.3002 46.4355 42.9917 46.3038 42.6832 46.172 42.404 45.9803 42.1702 45.7397V45.7357ZM14.4437 18.0055 20.1437 23.7055H17.2197C16.5925 23.7055 15.991 23.9547 15.5474 24.3982 15.1039 24.8417 14.8547 25.4433 14.8547 26.0705V26.0705C14.8546 26.3812 14.9157 26.6888 15.0345 26.9759 15.1533 27.2629 15.3275 27.5238 15.5471 27.7435 15.7667 27.9632 16.0275 28.1375 16.3145 28.2564 16.6015 28.3753 16.9091 28.4365 17.2197 28.4365H25.9817C26.6087 28.4355 27.2096 28.1856 27.6525 27.7418 28.0954 27.298 28.344 26.6965 28.3437 26.0695V26.0695 17.2925C28.3502 16.9778 28.2938 16.6649 28.1778 16.3723 28.0619 16.0796 27.8887 15.813 27.6684 15.5882 27.4481 15.3633 27.1851 15.1846 26.8949 15.0627 26.6047 14.9407 26.293 14.8779 25.9782 14.8779 25.6634 14.8779 25.3518 14.9407 25.0616 15.0627 24.7714 15.1846 24.5084 15.3633 24.2881 15.5882 24.0678 15.813 23.8946 16.0796 23.7786 16.3723 23.6627 16.6649 23.6063 16.9778 23.6127 17.2925V20.0215L18.0177 14.4265C17.7864 14.1762 17.5068 13.9751 17.1958 13.8355 16.8848 13.6958 16.5488 13.6204 16.2079 13.6138 15.8671 13.6073 15.5284 13.6696 15.2123 13.7971 14.8961 13.9246 14.6089 14.1147 14.3681 14.3559 14.1272 14.5972 13.9375 14.8846 13.8104 15.2009 13.6833 15.5173 13.6215 15.856 13.6285 16.1969 13.6356 16.5377 13.7115 16.8736 13.8515 17.1844 13.9916 17.4952 14.1931 17.7745 14.4437 18.0055V18.0055ZM45.802 17.9079 40.102 23.6079H43.026C43.3366 23.6077 43.6443 23.6688 43.9313 23.7876 44.2184 23.9064 44.4792 24.0806 44.6989 24.3002 44.9186 24.5198 45.0929 24.7806 45.2118 25.0676 45.3308 25.3546 45.392 25.6622 45.392 25.9729V25.9729C45.392 26.6004 45.1427 27.2022 44.699 27.6459 44.2553 28.0896 43.6535 28.3389 43.026 28.3389H34.262C33.9513 28.3389 33.6437 28.2777 33.3567 28.1587 33.0697 28.0398 32.8089 27.8655 32.5893 27.6458 32.3697 27.4261 32.1955 27.1653 32.0767 26.8782 31.9579 26.5912 31.8968 26.2835 31.897 25.9729V25.9729 17.1949C31.8905 16.8801 31.9469 16.5673 32.0629 16.2746 32.1788 15.9819 32.352 15.7154 32.5723 15.4905 32.7926 15.2656 33.0556 15.087 33.3458 14.965 33.636 14.8431 33.9477 14.7802 34.2625 14.7802 34.5773 14.7802 34.8889 14.8431 35.1791 14.965 35.4693 15.087 35.7323 15.2656 35.9526 15.4905 36.1729 15.7154 36.3461 15.9819 36.4621 16.2746 36.578 16.5673 36.6344 16.8801 36.628 17.1949V19.9239L42.223 14.3289C42.6999 13.8655 43.34 13.6085 44.0049 13.6133 44.6698 13.6181 45.3061 13.8844 45.7763 14.3546 46.2464 14.8247 46.5127 15.461 46.5175 16.1259 46.5223 16.7909 46.2653 17.4309 45.802 17.9079V17.9079Z" fill="white"/></svg>