<svg width="60" height="60" viewBox="0 0 60 60" fill="none" xmlns="http://www.w3.org/2000/svg"><path d="M24.0032 32.6012 18.3033 38.3012V35.3772C18.3039 35.0663 18.2432 34.7583 18.1248 34.4709 18.0063 34.1834 17.8322 33.9222 17.6127 33.702 17.3931 33.4819 17.1323 33.3072 16.8451 33.188 16.558 33.0688 16.2502 33.0074 15.9392 33.0072 15.3117 33.0072 14.7099 33.2565 14.2662 33.7002 13.8225 34.1439 13.5732 34.7457 13.5732 35.3732V44.1372C13.5726 44.4483 13.6333 44.7565 13.7519 45.044 13.8705 45.3316 14.0447 45.593 14.2645 45.8131 14.4843 46.0333 14.7454 46.2079 15.0327 46.327 15.3201 46.4461 15.6282 46.5074 15.9392 46.5072H24.7162C25.031 46.5137 25.3438 46.4573 25.6365 46.3413 25.9292 46.2254 26.1957 46.0521 26.4206 45.8318 26.6455 45.6115 26.8241 45.3486 26.9461 45.0584 27.0681 44.7682 27.1309 44.4565 27.1309 44.1417 27.1309 43.8269 27.0681 43.5153 26.9461 43.2251 26.8241 42.9349 26.6455 42.6719 26.4206 42.4516 26.1957 42.2313 25.9292 42.0581 25.6365 41.9421 25.3438 41.8262 25.031 41.7698 24.7162 41.7762H21.9872L27.5823 36.1762C27.8229 35.9425 28.0146 35.6632 28.1463 35.3547 28.2781 35.0462 28.3471 34.7146 28.3496 34.3791 28.352 34.0437 28.2877 33.7111 28.1605 33.4007 28.0332 33.0903 27.8455 32.8083 27.6083 32.5711 27.3711 32.3339 27.0891 32.1463 26.7787 32.019 26.4684 31.8918 26.1358 31.8275 25.8003 31.8299 25.4649 31.8323 25.1333 31.9014 24.8248 32.0331 24.5162 32.1649 24.237 32.3566 24.0032 32.5972V32.6012ZM36.0866 32.6012 41.7866 38.3012V35.3772C41.7861 35.0663 41.8469 34.7582 41.9655 34.4708 42.0841 34.1833 42.2582 33.9221 42.4778 33.702 42.6975 33.4819 42.9584 33.3072 43.2456 33.188 43.5328 33.0688 43.8407 33.0074 44.1516 33.0072V33.0072C44.4623 33.0072 44.7699 33.0684 45.0569 33.1873 45.3439 33.3063 45.6047 33.4806 45.8243 33.7003 46.0439 33.92 46.2181 34.1808 46.3369 34.4679 46.4557 34.7549 46.5168 35.0626 46.5166 35.3732V44.1372C46.5173 44.4482 46.4566 44.7563 46.338 45.0438 46.2195 45.3313 46.0454 45.5926 45.8257 45.8128 45.606 46.0329 45.3451 46.2076 45.0578 46.3267 44.7706 46.4459 44.4626 46.5072 44.1516 46.5072H35.3736C34.7547 46.4945 34.1654 46.2397 33.7321 45.7975 33.2989 45.3552 33.0563 44.7608 33.0563 44.1417 33.0563 43.5226 33.2989 42.9282 33.7321 42.486 34.1654 42.0438 34.7547 41.7889 35.3736 41.7762H38.1026L32.5076 36.1762C32.267 35.9425 32.0753 35.6632 31.9435 35.3547 31.8118 35.0462 31.7427 34.7146 31.7403 34.3791 31.7379 34.0437 31.8022 33.7111 31.9294 33.4007 32.0567 33.0903 32.2443 32.8083 32.4815 32.5711 32.7187 32.3339 33.0007 32.1463 33.3111 32.019 33.6215 31.8918 33.9541 31.8275 34.2895 31.8299 34.625 31.8323 34.9566 31.9014 35.2651 32.0331 35.5736 32.1649 35.8529 32.3566 36.0866 32.5972V32.6012ZM27.5284 24.0443 21.8284 18.3443H24.7524C25.3797 18.3443 25.9812 18.0951 26.4247 17.6516 26.8683 17.2081 27.1174 16.6065 27.1174 15.9793V15.9793C27.1176 15.6686 27.0565 15.361 26.9377 15.0739 26.8189 14.7869 26.6447 14.526 26.4251 14.3063 26.2055 14.0866 25.9447 13.9123 25.6577 13.7934 25.3707 13.6745 25.0631 13.6133 24.7524 13.6133H15.9904C15.3634 13.6143 14.7625 13.8642 14.3196 14.308 13.8768 14.7518 13.6282 15.3533 13.6284 15.9803V15.9803 24.7573C13.622 25.072 13.6784 25.3849 13.7943 25.6775 13.9103 25.9702 14.0835 26.2368 14.3038 26.4616 14.5241 26.6865 14.7871 26.8652 15.0773 26.9871 15.3675 27.1091 15.6791 27.1719 15.9939 27.1719 16.3087 27.1719 16.6204 27.1091 16.9106 26.9871 17.2008 26.8652 17.4638 26.6865 17.6841 26.4616 17.9044 26.2368 18.0776 25.9702 18.1935 25.6775 18.3095 25.3849 18.3659 25.072 18.3594 24.7573V22.0283L23.9544 27.6233C24.1858 27.8736 24.4654 28.0747 24.7764 28.2143 25.0874 28.354 25.4234 28.4294 25.7642 28.436 26.1051 28.4425 26.4438 28.3802 26.7599 28.2527 27.0761 28.1252 27.3632 27.9351 27.6041 27.6939 27.845 27.4526 28.0347 27.1652 28.1618 26.8489 28.2888 26.5325 28.3507 26.1938 28.3436 25.853 28.3366 25.5121 28.2607 25.1762 28.1206 24.8654 27.9805 24.5546 27.7791 24.2753 27.5284 24.0443V24.0443ZM32.6121 24.0443 38.3121 18.3443H35.3881C35.0774 18.3444 34.7698 18.2833 34.4827 18.1645 34.1957 18.0457 33.9349 17.8716 33.7151 17.6519 33.4954 17.4323 33.3211 17.1716 33.2022 16.8846 33.0833 16.5976 33.0221 16.2899 33.0221 15.9793V15.9793C33.0221 15.3518 33.2714 14.75 33.7151 14.3063 34.1588 13.8626 34.7606 13.6133 35.3881 13.6133H44.1521C44.4628 13.6133 44.7704 13.6745 45.0574 13.7934 45.3444 13.9123 45.6051 14.0866 45.8248 14.3063 46.0444 14.526 46.2186 14.7869 46.3374 15.0739 46.4561 15.361 46.5172 15.6686 46.5171 15.9793V15.9793 24.7573C46.5236 25.072 46.4672 25.3849 46.3512 25.6775 46.2352 25.9702 46.062 26.2368 45.8417 26.4616 45.6214 26.6865 45.3585 26.8652 45.0683 26.9871 44.778 27.1091 44.4664 27.1719 44.1516 27.1719 43.8368 27.1719 43.5252 27.1091 43.2349 26.9871 42.9447 26.8652 42.6818 26.6865 42.4615 26.4616 42.2412 26.2368 42.068 25.9702 41.952 25.6775 41.836 25.3849 41.7796 25.072 41.7861 24.7573V22.0283L36.1911 27.6233C35.7142 28.0866 35.0741 28.3436 34.4092 28.3388 33.7443 28.334 33.108 28.0677 32.6378 27.5976 32.1676 27.1274 31.9014 26.4911 31.8966 25.8262 31.8917 25.1613 32.1488 24.5212 32.6121 24.0443V24.0443Z" fill="white"/></svg>