<svg width="60" height="60" viewBox="0 0 60 60" fill="none" xmlns="http://www.w3.org/2000/svg"><path d="M31.2715 46.326C30.2106 46.326 29.1932 45.9045 28.4431 45.1544C27.6929 44.4043 27.2715 43.3868 27.2715 42.326V14.574C27.2715 13.5131 27.6929 12.4957 28.4431 11.7455C29.1932 10.9954 30.2106 10.574 31.2715 10.574C32.3324 10.574 33.3498 10.9954 34.0999 11.7455C34.85 12.4957 35.2715 13.5131 35.2715 14.574V42.326C35.2715 43.3868 34.85 44.4043 34.0999 45.1544C33.3498 45.9045 32.3324 46.326 31.2715 46.326Z" fill="white"/><path d="M24.8093 49.547C30.6028 49.547 35.2993 46.314 35.2993 42.326 35.2993 38.3379 30.6028 35.105 24.8093 35.105 19.0159 35.105 14.3193 38.3379 14.3193 42.326 14.3193 46.314 19.0159 49.547 24.8093 49.547ZM35.2703 14.707C35.0873 15.576 35.6703 16.077 36.4703 16.907 42.5223 21.834 48.2023 25.993 44.9013 34.968 44.6803 35.5778 44.2369 36.0814 43.66 36.3777 43.0831 36.6741 42.4155 36.7413 41.7911 36.5659 41.1668 36.3905 40.6318 35.9854 40.2937 35.4319 39.9556 34.8785 39.8394 34.2176 39.9683 33.582 42.7833 23.696 27.3843 25.324 27.2763 14.43 27.0613 8.31704 35.9863 8.64604 35.2763 14.703L35.2703 14.707ZM43.0635 45.384C42.6176 45.3854 42.1882 45.2157 41.8636 44.91L16.7736 21.332C16.6061 21.1745 16.4714 20.9854 16.377 20.7758 16.2826 20.5661 16.2304 20.3399 16.2235 20.1101 16.2094 19.6459 16.3803 19.1952 16.6986 18.857 17.0168 18.5189 17.4564 18.321 17.9205 18.307 18.3847 18.2929 18.8354 18.4638 19.1735 18.782L44.2635 42.359C44.5191 42.5994 44.6966 42.9109 44.7729 43.2534 44.8493 43.5958 44.8209 43.9532 44.6915 44.2793 44.5622 44.6054 44.3378 44.8851 44.0475 45.0821 43.7572 45.2791 43.4144 45.3843 43.0635 45.384V45.384Z" fill="white"/></svg>