<svg width="60" height="60" viewBox="0 0 60 60" fill="none" xmlns="http://www.w3.org/2000/svg"><path d="M31.0127 46.3262C29.9518 46.3262 28.9344 45.9048 28.1843 45.1546C27.4341 44.4045 27.0127 43.3871 27.0127 42.3262V14.5742C27.0127 13.5134 27.4341 12.4959 28.1843 11.7458C28.9344 10.9956 29.9518 10.5742 31.0127 10.5742C32.0736 10.5742 33.091 10.9956 33.8411 11.7458C34.5913 12.4959 35.0127 13.5134 35.0127 14.5742V42.3262C35.0127 43.3871 34.5913 44.4045 33.8411 45.1546C33.091 45.9048 32.0736 46.3262 31.0127 46.3262Z" fill="white"/><path d="M24.5496 49.5472C30.343 49.5472 35.0396 46.3143 35.0396 42.3262 35.0396 38.3382 30.343 35.1052 24.5496 35.1052 18.7561 35.1052 14.0596 38.3382 14.0596 42.3262 14.0596 46.3143 18.7561 49.5472 24.5496 49.5472ZM35.0105 14.7074C34.8275 15.5764 35.4105 16.0774 36.2105 16.9074 42.2625 21.8344 47.9425 25.9934 44.6405 34.9684 44.4209 35.5796 43.9777 36.0849 43.4004 36.3825 42.8231 36.6801 42.1544 36.7479 41.5291 36.5721 40.9038 36.3964 40.3683 35.9903 40.0305 35.4355 39.6927 34.8807 39.5776 34.2186 39.7085 33.5824 42.5215 23.7074 27.1285 25.3314 27.0145 14.4374 26.8005 8.32436 35.7255 8.65336 35.0145 14.7104L35.0105 14.7074Z" fill="white"/></svg>