<svg width="60" height="60" viewBox="0 0 60 60" fill="none" xmlns="http://www.w3.org/2000/svg"><path d="M30.3652 47.7788C29.7022 47.7788 29.0663 47.5154 28.5974 47.0466C28.1286 46.5777 27.8652 45.9418 27.8652 45.2788C27.8652 44.6158 28.1286 43.9799 28.5974 43.511C29.0663 43.0422 29.7022 42.7788 30.3652 42.7788C33.1248 42.7775 35.8061 41.8617 37.9899 40.1746C40.1736 38.4875 41.7367 36.1242 42.4346 33.4543C43.1325 30.7845 42.9259 27.9586 41.8471 25.4187C40.7684 22.8787 38.8782 20.7679 36.4723 19.4163C34.0664 18.0647 31.2804 17.5486 28.55 17.9487C25.8196 18.3487 23.2987 19.6424 21.3817 21.6274C19.4646 23.6123 18.2595 26.1767 17.9547 28.9194C17.6499 31.662 18.2627 34.4284 19.6972 36.7858C19.8713 37.066 19.9883 37.378 20.0413 37.7036C20.0943 38.0292 20.0823 38.3621 20.006 38.6831C19.9297 39.0041 19.7907 39.3068 19.5969 39.5738C19.4031 39.8408 19.1583 40.0668 18.8768 40.2388C18.5952 40.4107 18.2824 40.5252 17.9563 40.5757C17.6303 40.6262 17.2975 40.6117 16.9771 40.533C16.6567 40.4542 16.3551 40.3129 16.0896 40.117C15.8241 39.9212 15.6 39.6747 15.4302 39.3918C13.4173 36.0892 12.556 32.2125 12.9809 28.3683C13.4058 24.524 15.0931 20.9291 17.7787 18.1458C20.4644 15.3626 23.9968 13.5482 27.8235 12.9863C31.6501 12.4245 35.5551 13.147 38.9274 15.0407C42.2997 16.9345 44.9491 19.8927 46.4612 23.4526C47.9732 27.0125 48.2625 30.9732 47.2839 34.715C46.3053 38.4568 44.1139 41.7687 41.0527 44.1324C37.9914 46.4962 34.2329 47.7785 30.3652 47.7788V47.7788Z" fill="white"/><path d="M17.5556 40.5955C17.1167 40.5959 16.6855 40.4804 16.3056 40.2606L8.46464 35.7346C8.16734 35.5774 7.9048 35.3619 7.69273 35.101C7.48065 34.84 7.3234 34.539 7.23038 34.2158C7.13735 33.8927 7.11048 33.5541 7.15135 33.2204C7.19223 32.8866 7.30001 32.5645 7.46827 32.2734C7.63652 31.9822 7.86177 31.728 8.13055 31.526C8.39933 31.3239 8.70611 31.1781 9.03253 31.0974C9.35896 31.0167 9.69831 31.0026 10.0303 31.0561C10.3623 31.1095 10.6801 31.2294 10.9646 31.4086L16.6376 34.6846L19.9126 29.0106C20.2465 28.441 20.7921 28.0267 21.4303 27.858C22.0686 27.6892 22.7477 27.7798 23.3194 28.1099C23.8911 28.44 24.309 28.9828 24.482 29.6199C24.655 30.257 24.5689 30.9367 24.2426 31.5106L19.7176 39.3495C19.5535 39.6339 19.335 39.8831 19.0745 40.083C18.814 40.2829 18.5168 40.4296 18.1996 40.5146C17.9893 40.569 17.7729 40.5962 17.5556 40.5955V40.5955Z" fill="white"/></svg>