<svg width="44" height="44" viewBox="0 0 44 44" fill="none" xmlns="http://www.w3.org/2000/svg"><path fill-rule="evenodd" clip-rule="evenodd" d="M35.3895 19.5185L36.179 19.7082C36.6526 19.803 37 20.2455 37 20.7198L36.9996 23.2491C36.9996 23.7549 36.6522 24.1659 36.1786 24.2923L35.3891 24.4819C34.3155 24.7346 33.4312 25.5249 33.0207 26.5366V26.5681C32.5785 27.6113 32.6735 28.7809 33.2418 29.7294L33.6524 30.4248C33.9051 30.8358 33.8419 31.3732 33.4945 31.721L31.7261 33.4912C31.3787 33.839 30.8419 33.9023 30.4313 33.6493L29.7366 33.2383C28.7577 32.6692 27.6208 32.5743 26.5787 33.0169H26.5472C25.5367 33.4279 24.7473 34.3131 24.4946 35.3878L24.3052 36.1781C24.1788 36.6523 23.7367 37 23.2631 37L20.7365 36.9996C20.2312 36.9996 19.8206 36.6518 19.6944 36.1777L19.5049 35.3874C19.2525 34.3126 18.463 33.4275 17.4524 33.0165H17.4209C16.3788 32.5739 15.2104 32.669 14.263 33.2379L13.5683 33.6489C13.1577 33.9018 12.6208 33.8385 12.2735 33.4908L10.5051 31.7206C10.1577 31.3728 10.0945 30.8354 10.3471 30.4244L10.7577 29.7289C11.3263 28.749 11.421 27.6109 10.9789 26.5677V26.5362C10.5683 25.5247 9.68411 24.7344 8.61048 24.4815L7.821 24.2918C7.34738 24.1653 7 23.7227 7 23.2486L7.00044 20.7509C7.00044 20.2451 7.34784 19.8341 7.82144 19.7077L8.61092 19.5181C9.68455 19.2654 10.5687 18.4751 10.9793 17.4634V17.4319C11.4215 16.3887 11.3265 15.2191 10.7582 14.2706L10.3476 13.5752C10.0949 13.1641 10.1581 12.6268 10.5055 12.279L12.2739 10.5088C12.6213 10.161 13.1581 10.0977 13.5687 10.3507L14.2634 10.7617C15.2423 11.3308 16.3792 11.4257 17.4213 10.9831H17.4528C18.4633 10.5721 19.2527 9.68693 19.5054 8.61217L19.6948 7.82186C19.8212 7.34775 20.2633 7 20.7369 7L23.2635 7.00044C23.7688 7.00044 24.1794 7.34821 24.3056 7.8223L24.4951 8.61261C24.7475 9.68737 25.537 10.5725 26.5476 10.9835H26.5791C27.6212 11.4261 28.7896 11.331 29.737 10.7621L30.4317 10.3511C30.8423 10.0982 31.3792 10.1615 31.7265 10.5092L33.4949 12.2794C33.8423 12.6272 33.9055 13.1646 33.6529 13.5756L33.2423 14.2711C32.6737 15.251 32.579 16.3891 33.0211 17.4323V17.4638C33.4317 18.4753 34.3159 19.2656 35.3895 19.5185ZM22 28C25.3137 28 28 25.3137 28 22C28 18.6863 25.3137 16 22 16C18.6863 16 16 18.6863 16 22C16 25.3137 18.6863 28 22 28Z" fill="#106843"/></svg>