<svg width="84" height="85" viewBox="0 0 84 85" fill="none" xmlns="http://www.w3.org/2000/svg"><path d="M42 84.375C65.196 84.375 84 65.487 84 42.1875C84 18.888 65.196 0 42 0C18.804 0 0 18.888 0 42.1875C0 65.487 18.804 84.375 42 84.375Z" fill="#F97248"/><path d="M25.0707 36.9683H44.4057L39.4399 31.8964C38.376 30.809 37.7783 29.3345 37.7783 27.797C37.7783 26.2595 38.376 24.7849 39.4399 23.6975C40.5043 22.6106 41.9476 22 43.4526 22C44.9576 22 46.4009 22.6106 47.4653 23.6975L62.3384 38.8909C63.4023 39.9783 64 41.4529 64 42.9904C64 44.5278 63.4023 46.0024 62.3384 47.0898L47.4532 62.3006C46.926 62.8392 46.3002 63.2666 45.6115 63.5582C44.9227 63.8497 44.1845 63.9999 43.4389 64C42.6933 64.0001 41.955 63.8502 41.2662 63.5588C40.5773 63.2675 39.9514 62.8403 39.4241 62.3018C38.8968 61.7633 38.4785 61.124 38.1931 60.4203C37.9077 59.7166 37.7607 58.9624 37.7606 58.2007C37.7605 57.4391 37.9073 56.6848 38.1925 55.9811C38.4777 55.2773 38.8958 54.6379 39.4229 54.0992L44.0536 49.3721H25.0707C23.4606 49.3721 21.9165 48.7187 20.7781 47.5556C19.6396 46.3925 19 44.8151 19 43.1702C19 41.5254 19.6396 39.9479 20.7781 38.7848C21.9165 37.6217 23.4606 36.9683 25.0707 36.9683Z" fill="white"/></svg>