<svg width="84" height="85" viewBox="0 0 84 85" fill="none" xmlns="http://www.w3.org/2000/svg"><path d="M42.5112 67.1888C41.5829 67.1888 40.6927 66.8184 40.0363 66.1591C39.38 65.4998 39.0112 64.6056 39.0112 63.6732C39.0112 62.7408 39.38 61.8466 40.0363 61.1873C40.6927 60.528 41.5829 60.1576 42.5112 60.1576C46.3746 60.1557 50.1284 58.8679 53.1857 56.4954C56.243 54.1229 58.4313 50.7995 59.4083 47.045C60.3854 43.2906 60.0962 39.3167 58.5859 35.7449C57.0756 32.173 54.4294 29.2047 51.0611 27.304C47.6928 25.4034 43.7924 24.6776 39.9699 25.2402C36.1473 25.8028 32.6181 27.622 29.9342 30.4133C27.2504 33.2047 25.5632 36.8108 25.1365 40.6677C24.7098 44.5246 25.5677 48.4148 27.576 51.7299C27.8198 52.124 27.9835 52.5626 28.0577 53.0206C28.1319 53.4785 28.1151 53.9466 28.0083 54.398C27.9015 54.8494 27.7069 55.2751 27.4355 55.6505C27.1642 56.026 26.8216 56.3438 26.4274 56.5856C26.0332 56.8274 25.5952 56.9885 25.1388 57.0595C24.6823 57.1305 24.2164 57.1101 23.7679 56.9994C23.3193 56.8886 22.897 56.6898 22.5253 56.4144C22.1537 56.139 21.8399 55.7924 21.6022 55.3946C18.7841 50.7503 17.5782 45.2987 18.1732 39.8928C18.7681 34.4868 21.1303 29.4314 24.8901 25.5175C28.65 21.6036 33.5955 19.052 38.9528 18.2619C44.3101 17.4718 49.777 18.4878 54.4982 21.1509C59.2195 23.8141 62.9287 27.9741 65.0455 32.9801C67.1624 37.9862 67.5675 43.5559 66.1974 48.8178C64.8273 54.0797 61.7594 58.7371 57.4736 62.0611C53.1878 65.3852 47.9259 67.1884 42.5112 67.1888V67.1888Z" fill="white"/><path d="M24.5778 57.0876C23.9633 57.0881 23.3596 56.9256 22.8278 56.6165L11.8504 50.2519C11.4342 50.0309 11.0666 49.7279 10.7697 49.3609C10.4728 48.994 10.2527 48.5706 10.1224 48.1162C9.9922 47.6618 9.95457 47.1856 10.0118 46.7163C10.069 46.2469 10.2199 45.794 10.4555 45.3846C10.691 44.9752 11.0064 44.6177 11.3827 44.3335C11.759 44.0494 12.1885 43.8444 12.6454 43.7309C13.1024 43.6173 13.5775 43.5976 14.0423 43.6727C14.5071 43.7479 14.952 43.9165 15.3504 44.1684L23.2926 48.7753L27.8776 40.7962C28.345 39.9954 29.1088 39.4127 30.0024 39.1754C30.8959 38.9381 31.8466 39.0654 32.647 39.5296C33.4474 39.9938 34.0326 40.7572 34.2747 41.6531C34.5169 42.549 34.3964 43.5048 33.9396 44.3119L27.6046 55.3354C27.3748 55.7353 27.0689 56.0858 26.7042 56.3669C26.3396 56.648 25.9234 56.8542 25.4794 56.9737C25.1849 57.0502 24.8819 57.0885 24.5778 57.0876V57.0876Z" fill="white"/></svg>